<?xml version="1.0" encoding="utf-8"?>
<!-- Generator: Adobe Illustrator 15.1.0, SVG Export Plug-In . SVG Version: 6.00 Build 0)  -->
<!DOCTYPE svg PUBLIC "-//W3C//DTD SVG 1.1//EN" "http://www.w3.org/Graphics/SVG/1.1/DTD/svg11.dtd">
<svg version="1.1" id="Layer_1" xmlns="http://www.w3.org/2000/svg" xmlns:xlink="http://www.w3.org/1999/xlink" x="0px" y="0px"
	 width="500px" height="500px" viewBox="0 0 500 500" enable-background="new 0 0 500 500" xml:space="preserve">
<circle fill="#FFFFFF" cx="250" cy="250" r="250"/>
<g>
	<path fill="#D6A914" d="M386.028,217.614c-1.957-1.957-4.758-2.828-7.48-2.316l-116.336,21.73
		c-1.663,0.313-3.198,1.121-4.394,2.316l-26.399,26.397c-1.594,1.592-2.48,3.762-2.461,6.016l0.797,90.25l-55.632,55.633
		c-3.282,3.281-3.282,8.602,0,11.879c1.64,1.641,3.789,2.461,5.941,2.461c2.148,0,4.301-0.82,5.941-2.461l55.633-55.633l90.25,0.801
		h0.074c2.227,0,4.363-0.883,5.938-2.461l26.398-26.398c1.199-1.201,2.008-2.73,2.316-4.398l21.734-116.331
		C388.856,222.372,387.989,219.575,386.028,217.614L386.028,217.614z M350.579,335.789l-22.066,22.066l-70.222-0.621l40.187-40.188
		l24.832-1.504c4.633-0.277,8.16-4.262,7.879-8.891s-4.277-8.18-8.891-7.879l-5.906,0.359l26.387-26.387
		c3.281-3.281,3.281-8.598,0-11.879c-3.281-3.283-8.598-3.283-11.879,0l-41.965,41.965c-0.055,0.051-0.109,0.109-0.164,0.164
		l-7.965,7.963l0.918-15.189c0.281-4.633-3.246-8.613-7.879-8.891c-4.605-0.289-8.609,3.246-8.891,7.873l-2.063,34.123
		l-16.484,16.484l-0.621-70.227l22.07-22.066l101.727-19.003L350.579,335.789z M225.622,164.392
		c27.82,0,50.457-22.638,50.457-50.457c0-27.824-22.637-50.461-50.457-50.461c-27.825,0-50.46,22.637-50.46,50.461
		C175.162,141.754,197.797,164.392,225.622,164.392L225.622,164.392z M225.622,80.274c18.559,0,33.661,15.098,33.661,33.66
		c0,18.559-15.103,33.655-33.661,33.655c-18.563,0-33.661-15.097-33.661-33.655C191.961,95.372,207.06,80.274,225.622,80.274
		L225.622,80.274z M164.033,408.348c0,4.637-3.762,8.398-8.399,8.398H141.5c-4.636,0-8.398-3.762-8.398-8.398v-54.152
		c0-4.637,3.762-8.398,8.398-8.398h33.661v-85.195H141.5c-4.636,0-8.398-3.762-8.398-8.402v-54.148c0-4.64,3.762-8.401,8.398-8.401
		h168.239c4.637,0,8.398,3.762,8.398,8.401v11.208c0,4.641-3.762,8.402-8.398,8.402c-4.641,0-8.402-3.762-8.402-8.402v-2.809
		H149.903v37.352h33.656c4.641,0,8.402,3.762,8.402,8.397v101.996c0,4.639-3.761,8.402-8.402,8.402h-33.656v37.348h5.73
		C160.271,399.945,164.033,403.707,164.033,408.348L164.033,408.348z M318.138,397.219v11.129c0,4.637-3.762,8.398-8.398,8.398
		h-72.887c-4.641,0-8.398-3.762-8.398-8.398c0-4.641,3.758-8.402,8.398-8.402h64.484v-2.727c0-4.641,3.762-8.402,8.402-8.402
		C314.376,388.816,318.138,392.578,318.138,397.219L318.138,397.219z M318.138,397.219"/>
</g>
</svg>
