<?xml version="1.0" encoding="utf-8"?>
<!-- Generator: Adobe Illustrator 15.1.0, SVG Export Plug-In . SVG Version: 6.00 Build 0)  -->
<!DOCTYPE svg PUBLIC "-//W3C//DTD SVG 1.1//EN" "http://www.w3.org/Graphics/SVG/1.1/DTD/svg11.dtd">
<svg version="1.1" id="Layer_1" xmlns="http://www.w3.org/2000/svg" xmlns:xlink="http://www.w3.org/1999/xlink" x="0px" y="0px"
	 width="920px" height="150px" viewBox="0 0 920 150" enable-background="new 0 0 920 150" xml:space="preserve">
<g>
	<path fill="#EAEAEA" d="M60.846,79.691c-0.879,7.52-3.654,13.322-8.325,17.407c-4.671,4.085-10.881,6.128-18.628,6.128
		c-8.398,0-15.129-3.011-20.19-9.033c-5.062-6.022-7.593-14.079-7.593-24.17v-6.836c0-6.608,1.18-12.418,3.54-17.432
		c2.36-5.013,5.705-8.862,10.034-11.548c4.329-2.686,9.342-4.028,15.039-4.028c7.552,0,13.606,2.108,18.164,6.323
		c4.557,4.216,7.21,10.051,7.959,17.505h-9.424c-0.814-5.681-2.58-9.795-5.298-12.342c-2.718-2.546-6.519-3.82-11.401-3.82
		c-5.99,0-10.686,2.216-14.087,6.646c-3.402,4.432-5.103,10.735-5.103,18.912v6.891c0,7.722,1.611,13.863,4.834,18.424
		s7.731,6.841,13.525,6.841c5.208,0,9.204-1.18,11.987-3.54c2.783-2.36,4.63-6.47,5.542-12.329H60.846z"/>
	<path fill="#EAEAEA" d="M111.48,56.742H93.756v45.508h-9.033V56.742H67.34v-7.324h44.141V56.742z"/>
	<path fill="#EAEAEA" d="M138.287,103.227c-7.162,0-12.988-2.352-17.48-7.056c-4.492-4.704-6.738-10.994-6.738-18.872v-1.66
		c0-5.241,1.001-9.92,3.003-14.038c2.002-4.118,4.801-7.34,8.398-9.668c3.597-2.327,7.495-3.491,11.694-3.491
		c6.868,0,12.207,2.263,16.016,6.787c3.809,4.525,5.713,11.003,5.713,19.434v3.76h-35.791c0.13,5.208,1.652,9.416,4.565,12.622
		c2.913,3.207,6.616,4.81,11.108,4.81c3.19,0,5.892-0.651,8.105-1.953c2.213-1.302,4.15-3.027,5.811-5.176l5.518,4.297
		C153.782,99.825,147.141,103.227,138.287,103.227z M137.164,55.863c-3.646,0-6.706,1.327-9.18,3.979
		c-2.474,2.653-4.004,6.372-4.59,11.157h26.465v-0.684c-0.261-4.59-1.498-8.146-3.711-10.669
		C143.935,57.125,140.94,55.863,137.164,55.863z"/>
	<path fill="#EAEAEA" d="M213.971,76.42c0,8.041-1.839,14.519-5.518,19.434c-3.679,4.916-8.659,7.373-14.941,7.373
		c-6.413,0-11.458-2.034-15.137-6.104v25.439h-9.033V49.418h8.252l0.439,5.859c3.678-4.557,8.789-6.836,15.332-6.836
		c6.348,0,11.369,2.393,15.063,7.178c3.694,4.785,5.542,11.442,5.542,19.971V76.42z M204.938,75.395
		c0-5.957-1.27-10.661-3.809-14.111c-2.539-3.45-6.022-5.176-10.449-5.176c-5.469,0-9.57,2.425-12.305,7.275v25.244
		c2.702,4.818,6.836,7.227,12.402,7.227c4.329,0,7.771-1.717,10.327-5.151C203.66,87.268,204.938,82.166,204.938,75.395z"/>
	<path fill="#EAEAEA" d="M266.852,79.301h-6.348v22.949h-9.033V79.301h-6.348l-14.795,22.949h-11.426l18.896-27.344l-17.09-25.488
		h10.938l13.623,21.875h6.201V49.418h9.033v21.875h6.152l13.721-21.875h10.938l-17.139,25.537l18.896,27.295h-11.426L266.852,79.301
		z"/>
	<path fill="#EAEAEA" d="M322.223,103.227c-7.162,0-12.988-2.352-17.48-7.056c-4.492-4.704-6.738-10.994-6.738-18.872v-1.66
		c0-5.241,1.001-9.92,3.003-14.038c2.002-4.118,4.801-7.34,8.398-9.668c3.597-2.327,7.495-3.491,11.694-3.491
		c6.868,0,12.207,2.263,16.016,6.787c3.809,4.525,5.713,11.003,5.713,19.434v3.76h-35.791c0.13,5.208,1.652,9.416,4.565,12.622
		c2.913,3.207,6.616,4.81,11.108,4.81c3.19,0,5.892-0.651,8.105-1.953c2.213-1.302,4.15-3.027,5.811-5.176l5.518,4.297
		C337.717,99.825,331.077,103.227,322.223,103.227z M321.1,55.863c-3.646,0-6.706,1.327-9.18,3.979
		c-2.474,2.653-4.004,6.372-4.59,11.157h26.465v-0.684c-0.261-4.59-1.498-8.146-3.711-10.669
		C327.87,57.125,324.875,55.863,321.1,55.863z"/>
	<path fill="#EAEAEA" d="M396.441,102.25h-9.033V79.691h-24.268v22.559h-9.082V49.418h9.082v22.9h24.268v-22.9h9.033V102.25z"/>
	<path fill="#EAEAEA" d="M432.135,95.854c3.223,0,6.038-0.977,8.447-2.93c2.409-1.953,3.743-4.395,4.004-7.324h8.545
		c-0.163,3.027-1.205,5.908-3.125,8.643c-1.921,2.734-4.484,4.916-7.69,6.543c-3.207,1.627-6.6,2.441-10.181,2.441
		c-7.194,0-12.915-2.4-17.163-7.202c-4.248-4.801-6.372-11.369-6.372-19.702v-1.514c0-5.143,0.944-9.717,2.832-13.721
		c1.888-4.004,4.598-7.112,8.13-9.326c3.532-2.213,7.707-3.32,12.524-3.32c5.924,0,10.848,1.774,14.771,5.322
		c3.922,3.548,6.014,8.154,6.274,13.818h-8.545c-0.261-3.418-1.555-6.226-3.882-8.423c-2.328-2.197-5.2-3.296-8.618-3.296
		c-4.59,0-8.146,1.652-10.669,4.956c-2.523,3.304-3.784,8.081-3.784,14.331v1.709c0,6.087,1.253,10.775,3.76,14.063
		C423.899,94.21,427.479,95.854,432.135,95.854z"/>
	<path fill="#EAEAEA" d="M479.742,79.74h-6.592v22.51h-9.082V49.418h9.082v22.363h5.908l17.773-22.363h10.938l-20.898,25.391
		l22.656,27.441h-11.475L479.742,79.74z"/>
	<path fill="#EAEAEA" d="M551.471,49.418h9.033v52.832h-9.033V63.725l-24.365,38.525h-9.033V49.418h9.033v38.574L551.471,49.418z"/>
	<path fill="#EAEAEA" d="M609.186,49.418h9.033v52.832h-9.033V63.725L584.82,102.25h-9.033V49.418h9.033v38.574L609.186,49.418z
		 M611.627,30.131c0,3.954-1.343,7.131-4.028,9.533c-2.686,2.402-6.21,3.602-10.571,3.602c-4.362,0-7.895-1.208-10.596-3.626
		c-2.702-2.417-4.053-5.587-4.053-9.508h7.373c0,2.279,0.618,4.061,1.855,5.347c1.236,1.286,3.043,1.929,5.42,1.929
		c2.278,0,4.061-0.635,5.347-1.904c1.285-1.27,1.929-3.06,1.929-5.371H611.627z"/>
	<path fill="#EAEAEA" d="M673.932,79.74h-6.592v22.51h-9.082V49.418h9.082v22.363h5.908l17.773-22.363h10.938l-20.898,25.391
		l22.656,27.441h-11.475L673.932,79.74z"/>
	<path fill="#EAEAEA" d="M756.109,76.42c0,8.041-1.84,14.519-5.518,19.434c-3.679,4.916-8.659,7.373-14.941,7.373
		c-6.413,0-11.459-2.034-15.137-6.104v25.439h-9.033V49.418h8.252l0.439,5.859c3.678-4.557,8.789-6.836,15.332-6.836
		c6.348,0,11.368,2.393,15.063,7.178c3.694,4.785,5.542,11.442,5.542,19.971V76.42z M747.076,75.395
		c0-5.957-1.27-10.661-3.809-14.111c-2.539-3.45-6.022-5.176-10.449-5.176c-5.469,0-9.57,2.425-12.305,7.275v25.244
		c2.701,4.818,6.836,7.227,12.402,7.227c4.329,0,7.771-1.717,10.327-5.151C745.798,87.268,747.076,82.166,747.076,75.395z"/>
	<path fill="#EAEAEA" d="M789.508,103.227c-7.162,0-12.988-2.352-17.48-7.056c-4.492-4.704-6.738-10.994-6.738-18.872v-1.66
		c0-5.241,1.001-9.92,3.003-14.038c2.002-4.118,4.801-7.34,8.398-9.668c3.597-2.327,7.495-3.491,11.694-3.491
		c6.868,0,12.207,2.263,16.016,6.787c3.809,4.525,5.713,11.003,5.713,19.434v3.76h-35.791c0.13,5.208,1.651,9.416,4.565,12.622
		c2.913,3.207,6.616,4.81,11.108,4.81c3.189,0,5.892-0.651,8.105-1.953c2.213-1.302,4.15-3.027,5.811-5.176l5.518,4.297
		C805.002,99.825,798.361,103.227,789.508,103.227z M788.385,55.863c-3.646,0-6.706,1.327-9.18,3.979
		c-2.475,2.653-4.004,6.372-4.59,11.157h26.465v-0.684c-0.261-4.59-1.498-8.146-3.711-10.669
		C795.155,57.125,792.16,55.863,788.385,55.863z"/>
	<path fill="#EAEAEA" d="M841.754,95.854c3.223,0,6.038-0.977,8.447-2.93c2.408-1.953,3.743-4.395,4.004-7.324h8.545
		c-0.163,3.027-1.205,5.908-3.125,8.643c-1.921,2.734-4.484,4.916-7.69,6.543c-3.207,1.627-6.601,2.441-10.181,2.441
		c-7.194,0-12.915-2.4-17.163-7.202c-4.248-4.801-6.372-11.369-6.372-19.702v-1.514c0-5.143,0.943-9.717,2.832-13.721
		c1.888-4.004,4.598-7.112,8.13-9.326c3.531-2.213,7.706-3.32,12.524-3.32c5.924,0,10.848,1.774,14.771,5.322
		c3.922,3.548,6.014,8.154,6.274,13.818h-8.545c-0.261-3.418-1.555-6.226-3.882-8.423c-2.328-2.197-5.2-3.296-8.618-3.296
		c-4.59,0-8.146,1.652-10.669,4.956c-2.523,3.304-3.784,8.081-3.784,14.331v1.709c0,6.087,1.253,10.775,3.76,14.063
		C833.518,94.21,837.099,95.854,841.754,95.854z"/>
	<path fill="#EAEAEA" d="M912.164,56.742h-17.725v45.508h-9.033V56.742h-17.383v-7.324h44.141V56.742z"/>
</g>
</svg>
