<?xml version="1.0" encoding="utf-8"?>
<!-- Generator: Adobe Illustrator 15.1.0, SVG Export Plug-In . SVG Version: 6.00 Build 0)  -->
<!DOCTYPE svg PUBLIC "-//W3C//DTD SVG 1.1//EN" "http://www.w3.org/Graphics/SVG/1.1/DTD/svg11.dtd">
<svg version="1.1" xmlns="http://www.w3.org/2000/svg" xmlns:xlink="http://www.w3.org/1999/xlink" x="0px" y="0px" width="512px"
	 height="512px" viewBox="0 0 512 512" enable-background="new 0 0 512 512" xml:space="preserve">
<g id="Layer_1">
</g>
<g id="Layer_2">
	<g>
		<path fill="#EFEF9E" d="M256,503.5c-66.11,0-128.263-25.744-175.009-72.491C34.245,384.263,8.5,322.109,8.5,256
			c0-66.11,25.745-128.263,72.491-175.009C127.737,34.245,189.89,8.5,256,8.5c66.109,0,128.263,25.745,175.009,72.491
			C477.756,127.737,503.5,189.89,503.5,256c0,66.109-25.744,128.263-72.491,175.009C384.263,477.756,322.109,503.5,256,503.5z
			 M256,33.5C133.313,33.5,33.5,133.313,33.5,256c0,122.687,99.813,222.5,222.5,222.5c122.687,0,222.5-99.813,222.5-222.5
			C478.5,133.313,378.687,33.5,256,33.5z"/>
	</g>
	<g>
		<path fill="#EFEF9E" d="M204.854,301.676v139.525h-46.998V84.799h131.45c39,0,69.557,9.955,91.669,29.864
			c22.111,19.908,33.168,46.264,33.168,79.064c0,34.596-10.81,61.236-32.434,79.923c-21.622,18.684-52.587,28.026-92.895,28.026
			H204.854z M204.854,263.245h84.453c25.128,0,44.388-5.915,57.765-17.787c13.386-11.832,20.074-28.966,20.074-51.365
			c0-21.255-6.688-38.247-20.074-50.996c-13.377-12.75-31.738-19.378-55.075-19.869h-87.142V263.245z"/>
	</g>
</g>
</svg>
