<?xml version="1.0" encoding="utf-8"?>
<!-- Generator: Adobe Illustrator 15.1.0, SVG Export Plug-In . SVG Version: 6.00 Build 0)  -->
<!DOCTYPE svg PUBLIC "-//W3C//DTD SVG 1.1//EN" "http://www.w3.org/Graphics/SVG/1.1/DTD/svg11.dtd">
<svg version="1.1" xmlns="http://www.w3.org/2000/svg" xmlns:xlink="http://www.w3.org/1999/xlink" x="0px" y="0px" width="512px"
	 height="512px" viewBox="0 0 512 512" enable-background="new 0 0 512 512" xml:space="preserve">
<g id="Layer_1">
</g>
<g id="Layer_2">
	<g>
		<path fill="#EFEF9E" d="M256,503.5c-66.11,0-128.263-25.744-175.009-72.491C34.245,384.263,8.5,322.109,8.5,256
			c0-66.11,25.745-128.263,72.491-175.009C127.737,34.245,189.89,8.5,256,8.5c66.109,0,128.263,25.745,175.009,72.491
			C477.756,127.737,503.5,189.89,503.5,256c0,66.109-25.744,128.263-72.491,175.009C384.263,477.756,322.109,503.5,256,503.5z
			 M256,33.5C133.313,33.5,33.5,133.313,33.5,256c0,122.687,99.813,222.5,222.5,222.5c122.687,0,222.5-99.813,222.5-222.5
			C478.5,133.313,378.687,33.5,256,33.5z"/>
	</g>
	<g>
		<path fill="#EFEF9E" d="M334.042,267.907h-136.6v111.707h158.681v33.986H155.877V98.4h198.081v33.988H197.442v101.531h136.6
			V267.907z"/>
	</g>
</g>
</svg>
