<?xml version="1.0" encoding="utf-8"?>
<!-- Generator: Adobe Illustrator 15.1.0, SVG Export Plug-In . SVG Version: 6.00 Build 0)  -->
<!DOCTYPE svg PUBLIC "-//W3C//DTD SVG 1.1//EN" "http://www.w3.org/Graphics/SVG/1.1/DTD/svg11.dtd">
<svg version="1.1" id="Layer_1" xmlns="http://www.w3.org/2000/svg" xmlns:xlink="http://www.w3.org/1999/xlink" x="0px" y="0px"
	 width="1160px" height="150px" viewBox="0 0 1160 150" enable-background="new 0 0 1160 150" xml:space="preserve">
<g>
	<path fill="#EAEAEA" d="M63.677,41.916H40.826v63.428H31.5V41.916H8.697V34.25h54.98V41.916z"/>
	<path fill="#EAEAEA" d="M97.906,93.381l17.969-40.869h11.279v52.832h-9.033V66.916l-17.09,38.428h-6.25L77.349,66.086v39.258
		h-9.033V52.512h11.719L97.906,93.381z"/>
	<path fill="#EAEAEA" d="M158.941,92.111l12.305-39.6h9.668l-21.24,60.986c-3.288,8.789-8.513,13.184-15.674,13.184l-1.709-0.146
		l-3.369-0.635v-7.324l2.441,0.195c3.06,0,5.444-0.619,7.153-1.855c1.709-1.237,3.117-3.5,4.224-6.787l2.002-5.371l-18.848-52.246
		h9.863L158.941,92.111z"/>
	<path fill="#EAEAEA" d="M228.228,59.836h-17.725v45.508h-9.033V59.836h-17.383v-7.324h44.141V59.836z"/>
	<path fill="#EAEAEA" d="M268.853,105.344c-0.521-1.042-0.944-2.897-1.27-5.566c-4.199,4.362-9.212,6.543-15.039,6.543
		c-5.208,0-9.481-1.473-12.817-4.419c-3.337-2.946-5.005-6.681-5.005-11.206c0-5.501,2.091-9.773,6.274-12.817
		c4.183-3.043,10.066-4.565,17.651-4.565h8.789v-4.15c0-3.157-0.944-5.672-2.832-7.544c-1.888-1.872-4.671-2.808-8.35-2.808
		c-3.223,0-5.925,0.814-8.105,2.441c-2.181,1.628-3.271,3.597-3.271,5.908h-9.082c0-2.637,0.936-5.184,2.808-7.642
		c1.872-2.458,4.411-4.402,7.617-5.835c3.206-1.432,6.73-2.148,10.571-2.148c6.087,0,10.856,1.522,14.307,4.565
		c3.45,3.044,5.241,7.235,5.371,12.573V92.99c0,4.851,0.618,8.708,1.855,11.572v0.781H268.853z M253.863,98.459
		c2.832,0,5.518-0.732,8.057-2.197s4.378-3.369,5.518-5.713v-10.84h-7.08c-11.068,0-16.602,3.239-16.602,9.717
		c0,2.832,0.944,5.046,2.832,6.641C248.475,97.662,250.9,98.459,253.863,98.459z"/>
	<path fill="#EAEAEA" d="M335.259,79.514c0,8.041-1.839,14.519-5.518,19.434c-3.679,4.916-8.659,7.373-14.941,7.373
		c-6.413,0-11.458-2.034-15.137-6.104v25.439h-9.033V52.512h8.252l0.439,5.859c3.678-4.557,8.789-6.836,15.332-6.836
		c6.348,0,11.369,2.393,15.063,7.178c3.694,4.785,5.542,11.442,5.542,19.971V79.514z M326.226,78.488
		c0-5.957-1.27-10.661-3.809-14.111c-2.539-3.45-6.022-5.176-10.449-5.176c-5.469,0-9.57,2.425-12.305,7.275v25.244
		c2.702,4.818,6.836,7.227,12.402,7.227c4.329,0,7.771-1.717,10.327-5.151C324.948,90.362,326.226,85.259,326.226,78.488z"/>
	<path fill="#EAEAEA" d="M379.351,105.344c-0.521-1.042-0.944-2.897-1.27-5.566c-4.199,4.362-9.212,6.543-15.039,6.543
		c-5.208,0-9.481-1.473-12.817-4.419c-3.337-2.946-5.005-6.681-5.005-11.206c0-5.501,2.091-9.773,6.274-12.817
		c4.183-3.043,10.066-4.565,17.651-4.565h8.789v-4.15c0-3.157-0.944-5.672-2.832-7.544c-1.888-1.872-4.671-2.808-8.35-2.808
		c-3.223,0-5.925,0.814-8.105,2.441c-2.181,1.628-3.271,3.597-3.271,5.908h-9.082c0-2.637,0.936-5.184,2.808-7.642
		c1.872-2.458,4.411-4.402,7.617-5.835c3.206-1.432,6.73-2.148,10.571-2.148c6.087,0,10.856,1.522,14.307,4.565
		c3.45,3.044,5.241,7.235,5.371,12.573V92.99c0,4.851,0.618,8.708,1.855,11.572v0.781H379.351z M364.361,98.459
		c2.832,0,5.518-0.732,8.057-2.197s4.378-3.369,5.518-5.713v-10.84h-7.08c-11.068,0-16.602,3.239-16.602,9.717
		c0,2.832,0.944,5.046,2.832,6.641C358.973,97.662,361.398,98.459,364.361,98.459z"/>
	<path fill="#EAEAEA" d="M417.583,82.834h-6.592v22.51h-9.082V52.512h9.082v22.363h5.908l17.773-22.363h10.938l-20.898,25.391
		l22.656,27.441h-11.475L417.583,82.834z"/>
	<path fill="#EAEAEA" d="M487.75,105.344c-0.521-1.042-0.944-2.897-1.27-5.566c-4.199,4.362-9.212,6.543-15.039,6.543
		c-5.208,0-9.481-1.473-12.817-4.419c-3.337-2.946-5.005-6.681-5.005-11.206c0-5.501,2.091-9.773,6.274-12.817
		c4.183-3.043,10.066-4.565,17.651-4.565h8.789v-4.15c0-3.157-0.944-5.672-2.832-7.544c-1.888-1.872-4.671-2.808-8.35-2.808
		c-3.223,0-5.925,0.814-8.105,2.441c-2.181,1.628-3.271,3.597-3.271,5.908h-9.082c0-2.637,0.936-5.184,2.808-7.642
		c1.872-2.458,4.411-4.402,7.617-5.835c3.206-1.432,6.73-2.148,10.571-2.148c6.087,0,10.856,1.522,14.307,4.565
		c3.45,3.044,5.241,7.235,5.371,12.573V92.99c0,4.851,0.618,8.708,1.855,11.572v0.781H487.75z M472.759,98.459
		c2.832,0,5.518-0.732,8.057-2.197s4.378-3.369,5.518-5.713v-10.84h-7.08c-11.068,0-16.602,3.239-16.602,9.717
		c0,2.832,0.944,5.046,2.832,6.641C467.372,97.662,469.797,98.459,472.759,98.459z"/>
	<path fill="#EAEAEA" d="M552.691,105.344h-9.033V82.785H519.39v22.559h-9.082V52.512h9.082v22.9h24.268v-22.9h9.033V105.344z"/>
	<path fill="#EAEAEA" d="M588.384,98.947c3.223,0,6.038-0.977,8.447-2.93c2.409-1.953,3.743-4.395,4.004-7.324h8.545
		c-0.163,3.027-1.205,5.908-3.125,8.643c-1.921,2.734-4.484,4.916-7.69,6.543c-3.207,1.627-6.6,2.441-10.181,2.441
		c-7.194,0-12.915-2.4-17.163-7.202c-4.248-4.801-6.372-11.369-6.372-19.702v-1.514c0-5.143,0.944-9.717,2.832-13.721
		c1.888-4.004,4.598-7.112,8.13-9.326c3.532-2.213,7.707-3.32,12.524-3.32c5.924,0,10.848,1.774,14.771,5.322
		c3.922,3.548,6.014,8.154,6.274,13.818h-8.545c-0.261-3.418-1.555-6.226-3.882-8.423c-2.328-2.197-5.2-3.296-8.618-3.296
		c-4.59,0-8.146,1.652-10.669,4.956c-2.523,3.304-3.784,8.081-3.784,14.331v1.709c0,6.087,1.253,10.775,3.76,14.063
		C580.148,97.304,583.729,98.947,588.384,98.947z"/>
	<path fill="#EAEAEA" d="M635.992,82.834H629.4v22.51h-9.082V52.512h9.082v22.363h5.908l17.773-22.363h10.938l-20.898,25.391
		l22.656,27.441h-11.475L635.992,82.834z"/>
	<path fill="#EAEAEA" d="M707.72,52.512h9.033v52.832h-9.033V66.818l-24.365,38.525h-9.033V52.512h9.033v38.574L707.72,52.512z"/>
	<path fill="#EAEAEA" d="M765.436,52.512h9.033v52.832h-9.033V66.818l-24.366,38.525h-9.033V52.512h9.033v38.574L765.436,52.512z
		 M767.877,33.225c0,3.954-1.344,7.131-4.029,9.533c-2.685,2.402-6.209,3.602-10.571,3.602c-4.362,0-7.894-1.208-10.596-3.626
		c-2.702-2.417-4.053-5.587-4.053-9.508h7.373c0,2.279,0.618,4.061,1.855,5.347c1.237,1.286,3.043,1.929,5.42,1.929
		c2.278,0,4.061-0.635,5.347-1.904c1.285-1.27,1.929-3.06,1.929-5.371H767.877z"/>
	<path fill="#EAEAEA" d="M830.182,82.834h-6.592v22.51h-9.082V52.512h9.082v22.363h5.908l17.773-22.363h10.938l-20.898,25.391
		l22.656,27.441h-11.475L830.182,82.834z"/>
	<path fill="#EAEAEA" d="M900.348,105.344c-0.521-1.042-0.945-2.897-1.27-5.566c-4.199,4.362-9.213,6.543-15.039,6.543
		c-5.209,0-9.482-1.473-12.818-4.419c-3.336-2.946-5.004-6.681-5.004-11.206c0-5.501,2.09-9.773,6.273-12.817
		c4.184-3.043,10.066-4.565,17.652-4.565h8.789v-4.15c0-3.157-0.945-5.672-2.832-7.544c-1.889-1.872-4.672-2.808-8.35-2.808
		c-3.223,0-5.926,0.814-8.105,2.441c-2.182,1.628-3.271,3.597-3.271,5.908h-9.082c0-2.637,0.936-5.184,2.807-7.642
		c1.871-2.458,4.41-4.402,7.617-5.835c3.207-1.432,6.73-2.148,10.572-2.148c6.086,0,10.855,1.522,14.307,4.565
		c3.449,3.044,5.24,7.235,5.371,12.573V92.99c0,4.851,0.617,8.708,1.855,11.572v0.781H900.348z M885.357,98.459
		c2.832,0,5.518-0.732,8.057-2.197s4.377-3.369,5.518-5.713v-10.84h-7.08c-11.068,0-16.602,3.239-16.602,9.717
		c0,2.832,0.943,5.046,2.832,6.641C879.969,97.662,882.395,98.459,885.357,98.459z"/>
	<path fill="#EAEAEA" d="M952.545,93.381l17.969-40.869h11.279v52.832h-9.033V66.916l-17.09,38.428h-6.25l-17.432-39.258v39.258
		h-9.033V52.512h11.719L952.545,93.381z"/>
	<path fill="#EAEAEA" d="M1018.219,106.32c-7.162,0-12.988-2.352-17.48-7.056C996.246,94.561,994,88.271,994,80.393v-1.66
		c0-5.241,1-9.92,3.002-14.038c2.002-4.118,4.801-7.34,8.398-9.668c3.598-2.327,7.496-3.491,11.695-3.491
		c6.867,0,12.207,2.263,16.016,6.787c3.809,4.525,5.713,11.003,5.713,19.434v3.76h-35.791c0.129,5.208,1.65,9.416,4.564,12.622
		c2.914,3.207,6.617,4.81,11.109,4.81c3.189,0,5.891-0.651,8.105-1.953c2.213-1.302,4.15-3.027,5.811-5.176l5.518,4.297
		C1033.713,102.919,1027.072,106.32,1018.219,106.32z M1017.096,58.957c-3.646,0-6.707,1.327-9.18,3.979
		c-2.475,2.653-4.004,6.372-4.59,11.157h26.465V73.41c-0.262-4.59-1.498-8.146-3.711-10.669
		C1023.865,60.219,1020.871,58.957,1017.096,58.957z"/>
	<path fill="#EAEAEA" d="M1092.438,105.344h-9.033V82.785h-24.268v22.559h-9.082V52.512h9.082v22.9h24.268v-22.9h9.033V105.344z"/>
	<path fill="#EAEAEA" d="M1116.803,70.725h13.721c5.988,0.065,10.725,1.628,14.209,4.688c3.482,3.06,5.225,7.21,5.225,12.451
		c0,5.273-1.791,9.505-5.371,12.695c-3.582,3.19-8.398,4.785-14.453,4.785h-22.363V52.512h9.033V70.725z M1116.803,78.098v19.873
		h13.428c3.385,0,6.006-0.871,7.861-2.612c1.855-1.741,2.783-4.126,2.783-7.153c0-2.93-0.904-5.33-2.711-7.202
		c-1.807-1.872-4.338-2.84-7.592-2.905H1116.803z"/>
</g>
</svg>
