<?xml version="1.0" encoding="utf-8"?>
<!-- Generator: Adobe Illustrator 15.1.0, SVG Export Plug-In . SVG Version: 6.00 Build 0)  -->
<!DOCTYPE svg PUBLIC "-//W3C//DTD SVG 1.1//EN" "http://www.w3.org/Graphics/SVG/1.1/DTD/svg11.dtd">
<svg version="1.1" id="Layer_1" xmlns="http://www.w3.org/2000/svg" xmlns:xlink="http://www.w3.org/1999/xlink" x="0px" y="0px"
	 width="90px" height="90px" viewBox="0 0 90 90" enable-background="new 0 0 90 90" xml:space="preserve">
<g>
	<path fill-rule="evenodd" clip-rule="evenodd" fill="#EC145A" d="M45.001,0.378c-24.644,0-44.625,19.976-44.625,44.625
		c0,24.643,19.98,44.62,44.625,44.62c24.643,0,44.62-19.977,44.62-44.62C89.621,20.354,69.645,0.378,45.001,0.378L45.001,0.378z
		 M67.635,49.826"/>
</g>
<g>
	<path fill-rule="evenodd" clip-rule="evenodd" fill="#FFFFFF" d="M30.873,39.804c7.73-0.858,15.041,1.779,20.36,6.646
		c-3.212-1.767-6.981-2.597-10.901-2.161c-7.069,0.785-12.755,5.477-15.147,11.686c-0.826,2.29-2.855,4.059-5.431,4.431
		c-3.722,0.537-7.171-2.045-7.709-5.762c-0.28-1.941,0.288-3.808,1.42-5.226C17.826,44,23.944,40.574,30.873,39.804"/>
	<path fill-rule="evenodd" clip-rule="evenodd" fill="#FFFFFF" d="M41.683,26.465c15.477-1.721,29.688,7.114,35.464,20.753
		c0.416,0.916,0.697,1.912,0.815,2.969c0.6,5.388-3.283,10.237-8.667,10.834c-4.37,0.487-8.392-1.98-10.069-5.81h-0.003
		c-4.508-11.148-16.016-18.412-28.558-17.02c-6.389,0.711-12.021,3.553-16.269,7.739C19.337,35.521,29.391,27.831,41.683,26.465"/>
</g>
</svg>
