<?xml version="1.0" encoding="utf-8"?>
<!-- Generator: Adobe Illustrator 15.1.0, SVG Export Plug-In . SVG Version: 6.00 Build 0)  -->
<!DOCTYPE svg PUBLIC "-//W3C//DTD SVG 1.1//EN" "http://www.w3.org/Graphics/SVG/1.1/DTD/svg11.dtd">
<svg version="1.1" id="Layer_1" xmlns="http://www.w3.org/2000/svg" xmlns:xlink="http://www.w3.org/1999/xlink" x="0px" y="0px"
	 width="90px" height="90px" viewBox="0 0 90 90" enable-background="new 0 0 90 90" xml:space="preserve">
<g>
	<path fill-rule="evenodd" clip-rule="evenodd" fill="#4C75A3" d="M45.001,0.378c-24.644,0-44.625,19.976-44.625,44.625
		c0,24.643,19.98,44.62,44.625,44.62c24.643,0,44.62-19.977,44.62-44.62C89.621,20.354,69.645,0.378,45.001,0.378L45.001,0.378z
		 M67.635,49.826c2.081,2.032,4.279,3.945,6.147,6.183c0.824,0.994,1.604,2.021,2.202,3.174c0.847,1.641,0.08,3.446-1.391,3.545
		l-9.144-0.005c-2.358,0.196-4.24-0.753-5.822-2.366c-1.267-1.289-2.438-2.661-3.655-3.994c-0.5-0.545-1.021-1.058-1.646-1.464
		c-1.248-0.81-2.331-0.562-3.045,0.74c-0.727,1.324-0.892,2.791-0.963,4.267c-0.098,2.153-0.749,2.72-2.911,2.817
		c-4.623,0.219-9.009-0.481-13.084-2.813c-3.593-2.056-6.379-4.958-8.804-8.243c-4.721-6.397-8.336-13.428-11.586-20.654
		c-0.731-1.627-0.196-2.501,1.601-2.532c2.983-0.058,5.965-0.054,8.952-0.004c1.212,0.018,2.015,0.713,2.483,1.859
		c1.614,3.968,3.589,7.744,6.067,11.243c0.66,0.932,1.333,1.863,2.292,2.519c1.061,0.727,1.868,0.486,2.367-0.695
		c0.316-0.749,0.455-1.556,0.526-2.358c0.236-2.759,0.268-5.515-0.147-8.265c-0.254-1.716-1.222-2.826-2.934-3.152
		c-0.874-0.165-0.745-0.49-0.321-0.989c0.735-0.86,1.426-1.396,2.804-1.396h10.333c1.627,0.321,1.988,1.052,2.211,2.688
		l0.009,11.479c-0.018,0.633,0.316,2.514,1.458,2.933c0.914,0.299,1.516-0.432,2.064-1.012c2.474-2.626,4.239-5.729,5.817-8.943
		c0.7-1.413,1.302-2.88,1.886-4.346c0.433-1.088,1.109-1.623,2.336-1.601l9.945,0.009c0.295,0,0.593,0.004,0.879,0.054
		c1.676,0.285,2.135,1.007,1.618,2.644c-0.816,2.568-2.403,4.708-3.954,6.856c-1.659,2.295-3.434,4.511-5.078,6.82
		C65.637,46.933,65.758,47.995,67.635,49.826L67.635,49.826z M67.635,49.826"/>
</g>
</svg>
